<?xml version="1.0" encoding="UTF-8" standalone="no"?>
<!DOCTYPE svg PUBLIC "-//W3C//DTD SVG 1.1//EN"
 "http://www.w3.org/Graphics/SVG/1.1/DTD/svg11.dtd">
<!-- Generated by graphviz version 2.41.20170921.1950 (20170921.1950)
 -->
<!-- Title: %3 Pages: 1 -->
<svg width="2836pt" height="404pt"
 viewBox="0.00 0.00 2835.94 404.00" xmlns="http://www.w3.org/2000/svg" xmlns:xlink="http://www.w3.org/1999/xlink">
<g id="graph0" class="graph" transform="scale(1 1) rotate(0) translate(4 400)">
<title>%3</title>
<polygon fill="white" stroke="transparent" points="-4,4 -4,-400 2831.94,-400 2831.94,4 -4,4"/>
<!-- 0 -->
<g id="node1" class="node">
<title>0</title>
<ellipse fill="none" stroke="black" cx="1171.5" cy="-378" rx="41.69" ry="18"/>
<text text-anchor="middle" x="1171.5" y="-374.3" font-family="Times New Roman,serif" font-size="14.00">program</text>
</g>
<!-- 1 -->
<g id="node2" class="node">
<title>1</title>
<ellipse fill="none" stroke="black" cx="764.5" cy="-306" rx="31.4" ry="18"/>
<text text-anchor="middle" x="764.5" y="-302.3" font-family="Times New Roman,serif" font-size="14.00">graph</text>
</g>
<!-- 0&#45;&gt;1 -->
<g id="edge1" class="edge">
<title>0&#45;&gt;1</title>
<path fill="none" stroke="black" d="M1133.57,-370.48C1056.52,-357.22 882.33,-327.27 803.98,-313.79"/>
<polygon fill="black" stroke="black" points="804.48,-310.32 794.03,-312.08 803.29,-317.22 804.48,-310.32"/>
</g>
<!-- 49 -->
<g id="node50" class="node">
<title>49</title>
<ellipse fill="none" stroke="black" cx="1736.5" cy="-306" rx="31.4" ry="18"/>
<text text-anchor="middle" x="1736.5" y="-302.3" font-family="Times New Roman,serif" font-size="14.00">graph</text>
</g>
<!-- 0&#45;&gt;49 -->
<g id="edge49" class="edge">
<title>0&#45;&gt;49</title>
<path fill="none" stroke="black" d="M1211.23,-372.08C1314.68,-359.26 1591.58,-324.95 1695.95,-312.02"/>
<polygon fill="black" stroke="black" points="1696.58,-315.47 1706.07,-310.77 1695.72,-308.53 1696.58,-315.47"/>
</g>
<!-- 2 -->
<g id="node3" class="node">
<title>2</title>
<ellipse fill="none" stroke="black" cx="234.5" cy="-234" rx="27" ry="18"/>
<text text-anchor="middle" x="234.5" y="-230.3" font-family="Times New Roman,serif" font-size="14.00">{</text>
</g>
<!-- 1&#45;&gt;2 -->
<g id="edge2" class="edge">
<title>1&#45;&gt;2</title>
<path fill="none" stroke="black" d="M733.18,-305.22C654.05,-305.03 440.31,-299.73 270.5,-252 268.55,-251.45 266.58,-250.81 264.61,-250.1"/>
<polygon fill="black" stroke="black" points="265.56,-246.7 254.98,-246.11 262.88,-253.17 265.56,-246.7"/>
</g>
<!-- 3 -->
<g id="node4" class="node">
<title>3</title>
<ellipse fill="none" stroke="black" cx="313.5" cy="-234" rx="33.6" ry="18"/>
<text text-anchor="middle" x="313.5" y="-230.3" font-family="Times New Roman,serif" font-size="14.00">render</text>
</g>
<!-- 1&#45;&gt;3 -->
<g id="edge3" class="edge">
<title>1&#45;&gt;3</title>
<path fill="none" stroke="black" d="M734.56,-300.35C656.4,-288.22 446.03,-255.57 355.68,-241.55"/>
<polygon fill="black" stroke="black" points="355.94,-238.05 345.52,-239.97 354.87,-244.96 355.94,-238.05"/>
</g>
<!-- 12 -->
<g id="node13" class="node">
<title>12</title>
<ellipse fill="none" stroke="black" cx="764.5" cy="-234" rx="42.49" ry="18"/>
<text text-anchor="middle" x="764.5" y="-230.3" font-family="Times New Roman,serif" font-size="14.00">elements</text>
</g>
<!-- 1&#45;&gt;12 -->
<g id="edge12" class="edge">
<title>1&#45;&gt;12</title>
<path fill="none" stroke="black" d="M764.5,-287.7C764.5,-279.98 764.5,-270.71 764.5,-262.11"/>
<polygon fill="black" stroke="black" points="768,-262.1 764.5,-252.1 761,-262.1 768,-262.1"/>
</g>
<!-- 48 -->
<g id="node49" class="node">
<title>48</title>
<ellipse fill="none" stroke="black" cx="851.5" cy="-234" rx="27" ry="18"/>
<text text-anchor="middle" x="851.5" y="-230.3" font-family="Times New Roman,serif" font-size="14.00">}</text>
</g>
<!-- 1&#45;&gt;48 -->
<g id="edge48" class="edge">
<title>1&#45;&gt;48</title>
<path fill="none" stroke="black" d="M782.1,-290.83C794.97,-280.48 812.59,-266.31 826.85,-254.83"/>
<polygon fill="black" stroke="black" points="829.21,-257.43 834.8,-248.43 824.82,-251.97 829.21,-257.43"/>
</g>
<!-- 4 -->
<g id="node5" class="node">
<title>4</title>
<ellipse fill="none" stroke="black" cx="54.5" cy="-162" rx="27" ry="18"/>
<text text-anchor="middle" x="54.5" y="-158.3" font-family="Times New Roman,serif" font-size="14.00">[</text>
</g>
<!-- 3&#45;&gt;4 -->
<g id="edge4" class="edge">
<title>3&#45;&gt;4</title>
<path fill="none" stroke="black" d="M287.84,-221.99C282.19,-219.81 276.19,-217.68 270.5,-216 192.25,-192.91 167.96,-205.61 90.5,-180 88.58,-179.37 86.63,-178.65 84.68,-177.89"/>
<polygon fill="black" stroke="black" points="85.65,-174.5 75.08,-173.77 82.89,-180.93 85.65,-174.5"/>
</g>
<!-- 5 -->
<g id="node6" class="node">
<title>5</title>
<ellipse fill="none" stroke="black" cx="131.5" cy="-162" rx="32.49" ry="18"/>
<text text-anchor="middle" x="131.5" y="-158.3" font-family="Times New Roman,serif" font-size="14.00">layout</text>
</g>
<!-- 3&#45;&gt;5 -->
<g id="edge5" class="edge">
<title>3&#45;&gt;5</title>
<path fill="none" stroke="black" d="M287.14,-222.52C281.64,-220.35 275.88,-218.09 270.5,-216 235.39,-202.37 195.19,-187.07 167.07,-176.43"/>
<polygon fill="black" stroke="black" points="168.26,-173.13 157.66,-172.87 165.78,-179.68 168.26,-173.13"/>
</g>
<!-- 8 -->
<g id="node9" class="node">
<title>8</title>
<ellipse fill="none" stroke="black" cx="268.5" cy="-162" rx="44.69" ry="18"/>
<text text-anchor="middle" x="268.5" y="-158.3" font-family="Times New Roman,serif" font-size="14.00">extension</text>
</g>
<!-- 3&#45;&gt;8 -->
<g id="edge8" class="edge">
<title>3&#45;&gt;8</title>
<path fill="none" stroke="black" d="M303.06,-216.76C297.63,-208.32 290.87,-197.8 284.77,-188.31"/>
<polygon fill="black" stroke="black" points="287.54,-186.15 279.19,-179.63 281.65,-189.94 287.54,-186.15"/>
</g>
<!-- 11 -->
<g id="node12" class="node">
<title>11</title>
<ellipse fill="none" stroke="black" cx="358.5" cy="-162" rx="27" ry="18"/>
<text text-anchor="middle" x="358.5" y="-158.3" font-family="Times New Roman,serif" font-size="14.00">]</text>
</g>
<!-- 3&#45;&gt;11 -->
<g id="edge11" class="edge">
<title>3&#45;&gt;11</title>
<path fill="none" stroke="black" d="M323.93,-216.76C329.5,-208.11 336.46,-197.27 342.68,-187.6"/>
<polygon fill="black" stroke="black" points="345.65,-189.45 348.12,-179.15 339.76,-185.67 345.65,-189.45"/>
</g>
<!-- 6 -->
<g id="node7" class="node">
<title>6</title>
<ellipse fill="none" stroke="black" cx="32.5" cy="-90" rx="32.49" ry="18"/>
<text text-anchor="middle" x="32.5" y="-86.3" font-family="Times New Roman,serif" font-size="14.00">layout</text>
</g>
<!-- 5&#45;&gt;6 -->
<g id="edge6" class="edge">
<title>5&#45;&gt;6</title>
<path fill="none" stroke="black" d="M111.94,-147.17C97.06,-136.65 76.41,-122.05 59.89,-110.37"/>
<polygon fill="black" stroke="black" points="61.86,-107.48 51.68,-104.56 57.82,-113.19 61.86,-107.48"/>
</g>
<!-- 7 -->
<g id="node8" class="node">
<title>7</title>
<ellipse fill="none" stroke="black" cx="109.5" cy="-90" rx="27" ry="18"/>
<text text-anchor="middle" x="109.5" y="-86.3" font-family="Times New Roman,serif" font-size="14.00">dot</text>
</g>
<!-- 5&#45;&gt;7 -->
<g id="edge7" class="edge">
<title>5&#45;&gt;7</title>
<path fill="none" stroke="black" d="M126.17,-144.05C123.66,-136.06 120.6,-126.33 117.79,-117.4"/>
<polygon fill="black" stroke="black" points="121.11,-116.28 114.77,-107.79 114.43,-118.38 121.11,-116.28"/>
</g>
<!-- 9 -->
<g id="node10" class="node">
<title>9</title>
<ellipse fill="none" stroke="black" cx="199.5" cy="-90" rx="44.69" ry="18"/>
<text text-anchor="middle" x="199.5" y="-86.3" font-family="Times New Roman,serif" font-size="14.00">extension</text>
</g>
<!-- 8&#45;&gt;9 -->
<g id="edge9" class="edge">
<title>8&#45;&gt;9</title>
<path fill="none" stroke="black" d="M252.84,-145.12C243.97,-136.12 232.7,-124.68 222.81,-114.65"/>
<polygon fill="black" stroke="black" points="225.08,-111.97 215.57,-107.31 220.1,-116.89 225.08,-111.97"/>
</g>
<!-- 10 -->
<g id="node11" class="node">
<title>10</title>
<ellipse fill="none" stroke="black" cx="289.5" cy="-90" rx="27" ry="18"/>
<text text-anchor="middle" x="289.5" y="-86.3" font-family="Times New Roman,serif" font-size="14.00">png</text>
</g>
<!-- 8&#45;&gt;10 -->
<g id="edge10" class="edge">
<title>8&#45;&gt;10</title>
<path fill="none" stroke="black" d="M273.58,-144.05C275.98,-136.06 278.9,-126.33 281.58,-117.4"/>
<polygon fill="black" stroke="black" points="284.94,-118.37 284.46,-107.79 278.23,-116.36 284.94,-118.37"/>
</g>
<!-- 13 -->
<g id="node14" class="node">
<title>13</title>
<ellipse fill="none" stroke="black" cx="471.5" cy="-162" rx="38.19" ry="18"/>
<text text-anchor="middle" x="471.5" y="-158.3" font-family="Times New Roman,serif" font-size="14.00">element</text>
</g>
<!-- 12&#45;&gt;13 -->
<g id="edge13" class="edge">
<title>12&#45;&gt;13</title>
<path fill="none" stroke="black" d="M728.57,-224.42C674.66,-211.54 572.97,-187.24 514.96,-173.38"/>
<polygon fill="black" stroke="black" points="515.54,-169.92 505,-171 513.91,-176.73 515.54,-169.92"/>
</g>
<!-- 20 -->
<g id="node21" class="node">
<title>20</title>
<ellipse fill="none" stroke="black" cx="722.5" cy="-162" rx="38.19" ry="18"/>
<text text-anchor="middle" x="722.5" y="-158.3" font-family="Times New Roman,serif" font-size="14.00">element</text>
</g>
<!-- 12&#45;&gt;20 -->
<g id="edge20" class="edge">
<title>12&#45;&gt;20</title>
<path fill="none" stroke="black" d="M754.54,-216.41C749.47,-207.95 743.19,-197.49 737.54,-188.08"/>
<polygon fill="black" stroke="black" points="740.53,-186.24 732.38,-179.47 734.52,-189.85 740.53,-186.24"/>
</g>
<!-- 27 -->
<g id="node28" class="node">
<title>27</title>
<ellipse fill="none" stroke="black" cx="883.5" cy="-162" rx="38.19" ry="18"/>
<text text-anchor="middle" x="883.5" y="-158.3" font-family="Times New Roman,serif" font-size="14.00">element</text>
</g>
<!-- 12&#45;&gt;27 -->
<g id="edge27" class="edge">
<title>12&#45;&gt;27</title>
<path fill="none" stroke="black" d="M788.29,-219C806.53,-208.28 831.86,-193.38 851.81,-181.64"/>
<polygon fill="black" stroke="black" points="853.71,-184.58 860.55,-176.5 850.16,-178.55 853.71,-184.58"/>
</g>
<!-- 34 -->
<g id="node35" class="node">
<title>34</title>
<ellipse fill="none" stroke="black" cx="1122.5" cy="-162" rx="38.19" ry="18"/>
<text text-anchor="middle" x="1122.5" y="-158.3" font-family="Times New Roman,serif" font-size="14.00">element</text>
</g>
<!-- 12&#45;&gt;34 -->
<g id="edge34" class="edge">
<title>12&#45;&gt;34</title>
<path fill="none" stroke="black" d="M795.84,-221.73C802.29,-219.64 809.07,-217.62 815.5,-216 906.49,-193.12 1015.12,-176.91 1075.71,-168.84"/>
<polygon fill="black" stroke="black" points="1076.28,-172.3 1085.74,-167.52 1075.36,-165.36 1076.28,-172.3"/>
</g>
<!-- 41 -->
<g id="node42" class="node">
<title>41</title>
<ellipse fill="none" stroke="black" cx="1361.5" cy="-162" rx="38.19" ry="18"/>
<text text-anchor="middle" x="1361.5" y="-158.3" font-family="Times New Roman,serif" font-size="14.00">element</text>
</g>
<!-- 12&#45;&gt;41 -->
<g id="edge41" class="edge">
<title>12&#45;&gt;41</title>
<path fill="none" stroke="black" d="M795.2,-221.53C801.82,-219.41 808.83,-217.42 815.5,-216 839.74,-210.85 1185.52,-179.04 1313.94,-167.32"/>
<polygon fill="black" stroke="black" points="1314.6,-170.78 1324.24,-166.38 1313.97,-163.81 1314.6,-170.78"/>
</g>
<!-- 14 -->
<g id="node15" class="node">
<title>14</title>
<ellipse fill="none" stroke="black" cx="366.5" cy="-90" rx="32.49" ry="18"/>
<text text-anchor="middle" x="366.5" y="-86.3" font-family="Times New Roman,serif" font-size="14.00">vertex</text>
</g>
<!-- 13&#45;&gt;14 -->
<g id="edge14" class="edge">
<title>13&#45;&gt;14</title>
<path fill="none" stroke="black" d="M450.25,-146.83C434.43,-136.29 412.66,-121.77 395.28,-110.19"/>
<polygon fill="black" stroke="black" points="396.91,-107.07 386.65,-104.43 393.02,-112.89 396.91,-107.07"/>
</g>
<!-- 16 -->
<g id="node17" class="node">
<title>16</title>
<ellipse fill="none" stroke="black" cx="444.5" cy="-90" rx="27.9" ry="18"/>
<text text-anchor="middle" x="444.5" y="-86.3" font-family="Times New Roman,serif" font-size="14.00">edge</text>
</g>
<!-- 13&#45;&gt;16 -->
<g id="edge16" class="edge">
<title>13&#45;&gt;16</title>
<path fill="none" stroke="black" d="M464.96,-144.05C461.88,-136.06 458.12,-126.33 454.68,-117.4"/>
<polygon fill="black" stroke="black" points="457.84,-115.86 450.97,-107.79 451.31,-118.38 457.84,-115.86"/>
</g>
<!-- 18 -->
<g id="node19" class="node">
<title>18</title>
<ellipse fill="none" stroke="black" cx="522.5" cy="-90" rx="32.49" ry="18"/>
<text text-anchor="middle" x="522.5" y="-86.3" font-family="Times New Roman,serif" font-size="14.00">vertex</text>
</g>
<!-- 13&#45;&gt;18 -->
<g id="edge18" class="edge">
<title>13&#45;&gt;18</title>
<path fill="none" stroke="black" d="M483.33,-144.76C489.7,-136.02 497.69,-125.05 504.79,-115.31"/>
<polygon fill="black" stroke="black" points="507.67,-117.29 510.73,-107.15 502.02,-113.17 507.67,-117.29"/>
</g>
<!-- 15 -->
<g id="node16" class="node">
<title>15</title>
<ellipse fill="none" stroke="black" cx="366.5" cy="-18" rx="27" ry="18"/>
<text text-anchor="middle" x="366.5" y="-14.3" font-family="Times New Roman,serif" font-size="14.00">v1</text>
</g>
<!-- 14&#45;&gt;15 -->
<g id="edge15" class="edge">
<title>14&#45;&gt;15</title>
<path fill="none" stroke="black" d="M366.5,-71.7C366.5,-63.98 366.5,-54.71 366.5,-46.11"/>
<polygon fill="black" stroke="black" points="370,-46.1 366.5,-36.1 363,-46.1 370,-46.1"/>
</g>
<!-- 17 -->
<g id="node18" class="node">
<title>17</title>
<ellipse fill="none" stroke="black" cx="444.5" cy="-18" rx="27" ry="18"/>
<text text-anchor="middle" x="444.5" y="-14.3" font-family="Times New Roman,serif" font-size="14.00">&#45;</text>
</g>
<!-- 16&#45;&gt;17 -->
<g id="edge17" class="edge">
<title>16&#45;&gt;17</title>
<path fill="none" stroke="black" d="M444.5,-71.7C444.5,-63.98 444.5,-54.71 444.5,-46.11"/>
<polygon fill="black" stroke="black" points="448,-46.1 444.5,-36.1 441,-46.1 448,-46.1"/>
</g>
<!-- 19 -->
<g id="node20" class="node">
<title>19</title>
<ellipse fill="none" stroke="black" cx="522.5" cy="-18" rx="27" ry="18"/>
<text text-anchor="middle" x="522.5" y="-14.3" font-family="Times New Roman,serif" font-size="14.00">v2</text>
</g>
<!-- 18&#45;&gt;19 -->
<g id="edge19" class="edge">
<title>18&#45;&gt;19</title>
<path fill="none" stroke="black" d="M522.5,-71.7C522.5,-63.98 522.5,-54.71 522.5,-46.11"/>
<polygon fill="black" stroke="black" points="526,-46.1 522.5,-36.1 519,-46.1 526,-46.1"/>
</g>
<!-- 21 -->
<g id="node22" class="node">
<title>21</title>
<ellipse fill="none" stroke="black" cx="605.5" cy="-90" rx="32.49" ry="18"/>
<text text-anchor="middle" x="605.5" y="-86.3" font-family="Times New Roman,serif" font-size="14.00">vertex</text>
</g>
<!-- 20&#45;&gt;21 -->
<g id="edge21" class="edge">
<title>20&#45;&gt;21</title>
<path fill="none" stroke="black" d="M699.66,-147.34C681.32,-136.37 655.42,-120.87 635.42,-108.91"/>
<polygon fill="black" stroke="black" points="637.08,-105.82 626.7,-103.69 633.49,-111.82 637.08,-105.82"/>
</g>
<!-- 23 -->
<g id="node24" class="node">
<title>23</title>
<ellipse fill="none" stroke="black" cx="683.5" cy="-90" rx="27.9" ry="18"/>
<text text-anchor="middle" x="683.5" y="-86.3" font-family="Times New Roman,serif" font-size="14.00">edge</text>
</g>
<!-- 20&#45;&gt;23 -->
<g id="edge23" class="edge">
<title>20&#45;&gt;23</title>
<path fill="none" stroke="black" d="M713.25,-144.41C708.59,-136.04 702.84,-125.71 697.63,-116.37"/>
<polygon fill="black" stroke="black" points="700.6,-114.5 692.67,-107.47 694.48,-117.91 700.6,-114.5"/>
</g>
<!-- 25 -->
<g id="node26" class="node">
<title>25</title>
<ellipse fill="none" stroke="black" cx="761.5" cy="-90" rx="32.49" ry="18"/>
<text text-anchor="middle" x="761.5" y="-86.3" font-family="Times New Roman,serif" font-size="14.00">vertex</text>
</g>
<!-- 20&#45;&gt;25 -->
<g id="edge25" class="edge">
<title>20&#45;&gt;25</title>
<path fill="none" stroke="black" d="M731.74,-144.41C736.4,-136.04 742.16,-125.71 747.36,-116.37"/>
<polygon fill="black" stroke="black" points="750.51,-117.91 752.32,-107.47 744.4,-114.5 750.51,-117.91"/>
</g>
<!-- 22 -->
<g id="node23" class="node">
<title>22</title>
<ellipse fill="none" stroke="black" cx="605.5" cy="-18" rx="27" ry="18"/>
<text text-anchor="middle" x="605.5" y="-14.3" font-family="Times New Roman,serif" font-size="14.00">v1</text>
</g>
<!-- 21&#45;&gt;22 -->
<g id="edge22" class="edge">
<title>21&#45;&gt;22</title>
<path fill="none" stroke="black" d="M605.5,-71.7C605.5,-63.98 605.5,-54.71 605.5,-46.11"/>
<polygon fill="black" stroke="black" points="609,-46.1 605.5,-36.1 602,-46.1 609,-46.1"/>
</g>
<!-- 24 -->
<g id="node25" class="node">
<title>24</title>
<ellipse fill="none" stroke="black" cx="683.5" cy="-18" rx="27" ry="18"/>
<text text-anchor="middle" x="683.5" y="-14.3" font-family="Times New Roman,serif" font-size="14.00">&#45;</text>
</g>
<!-- 23&#45;&gt;24 -->
<g id="edge24" class="edge">
<title>23&#45;&gt;24</title>
<path fill="none" stroke="black" d="M683.5,-71.7C683.5,-63.98 683.5,-54.71 683.5,-46.11"/>
<polygon fill="black" stroke="black" points="687,-46.1 683.5,-36.1 680,-46.1 687,-46.1"/>
</g>
<!-- 26 -->
<g id="node27" class="node">
<title>26</title>
<ellipse fill="none" stroke="black" cx="761.5" cy="-18" rx="27" ry="18"/>
<text text-anchor="middle" x="761.5" y="-14.3" font-family="Times New Roman,serif" font-size="14.00">v3</text>
</g>
<!-- 25&#45;&gt;26 -->
<g id="edge26" class="edge">
<title>25&#45;&gt;26</title>
<path fill="none" stroke="black" d="M761.5,-71.7C761.5,-63.98 761.5,-54.71 761.5,-46.11"/>
<polygon fill="black" stroke="black" points="765,-46.1 761.5,-36.1 758,-46.1 765,-46.1"/>
</g>
<!-- 28 -->
<g id="node29" class="node">
<title>28</title>
<ellipse fill="none" stroke="black" cx="844.5" cy="-90" rx="32.49" ry="18"/>
<text text-anchor="middle" x="844.5" y="-86.3" font-family="Times New Roman,serif" font-size="14.00">vertex</text>
</g>
<!-- 27&#45;&gt;28 -->
<g id="edge28" class="edge">
<title>27&#45;&gt;28</title>
<path fill="none" stroke="black" d="M874.25,-144.41C869.59,-136.04 863.84,-125.71 858.63,-116.37"/>
<polygon fill="black" stroke="black" points="861.6,-114.5 853.67,-107.47 855.48,-117.91 861.6,-114.5"/>
</g>
<!-- 30 -->
<g id="node31" class="node">
<title>30</title>
<ellipse fill="none" stroke="black" cx="922.5" cy="-90" rx="27.9" ry="18"/>
<text text-anchor="middle" x="922.5" y="-86.3" font-family="Times New Roman,serif" font-size="14.00">edge</text>
</g>
<!-- 27&#45;&gt;30 -->
<g id="edge30" class="edge">
<title>27&#45;&gt;30</title>
<path fill="none" stroke="black" d="M892.74,-144.41C897.4,-136.04 903.16,-125.71 908.36,-116.37"/>
<polygon fill="black" stroke="black" points="911.51,-117.91 913.32,-107.47 905.4,-114.5 911.51,-117.91"/>
</g>
<!-- 32 -->
<g id="node33" class="node">
<title>32</title>
<ellipse fill="none" stroke="black" cx="1000.5" cy="-90" rx="32.49" ry="18"/>
<text text-anchor="middle" x="1000.5" y="-86.3" font-family="Times New Roman,serif" font-size="14.00">vertex</text>
</g>
<!-- 27&#45;&gt;32 -->
<g id="edge32" class="edge">
<title>27&#45;&gt;32</title>
<path fill="none" stroke="black" d="M906.33,-147.34C924.67,-136.37 950.57,-120.87 970.57,-108.91"/>
<polygon fill="black" stroke="black" points="972.51,-111.82 979.29,-103.69 968.92,-105.82 972.51,-111.82"/>
</g>
<!-- 29 -->
<g id="node30" class="node">
<title>29</title>
<ellipse fill="none" stroke="black" cx="844.5" cy="-18" rx="27" ry="18"/>
<text text-anchor="middle" x="844.5" y="-14.3" font-family="Times New Roman,serif" font-size="14.00">v3</text>
</g>
<!-- 28&#45;&gt;29 -->
<g id="edge29" class="edge">
<title>28&#45;&gt;29</title>
<path fill="none" stroke="black" d="M844.5,-71.7C844.5,-63.98 844.5,-54.71 844.5,-46.11"/>
<polygon fill="black" stroke="black" points="848,-46.1 844.5,-36.1 841,-46.1 848,-46.1"/>
</g>
<!-- 31 -->
<g id="node32" class="node">
<title>31</title>
<ellipse fill="none" stroke="black" cx="922.5" cy="-18" rx="27" ry="18"/>
<text text-anchor="middle" x="922.5" y="-14.3" font-family="Times New Roman,serif" font-size="14.00">&#45;</text>
</g>
<!-- 30&#45;&gt;31 -->
<g id="edge31" class="edge">
<title>30&#45;&gt;31</title>
<path fill="none" stroke="black" d="M922.5,-71.7C922.5,-63.98 922.5,-54.71 922.5,-46.11"/>
<polygon fill="black" stroke="black" points="926,-46.1 922.5,-36.1 919,-46.1 926,-46.1"/>
</g>
<!-- 33 -->
<g id="node34" class="node">
<title>33</title>
<ellipse fill="none" stroke="black" cx="1000.5" cy="-18" rx="27" ry="18"/>
<text text-anchor="middle" x="1000.5" y="-14.3" font-family="Times New Roman,serif" font-size="14.00">v4</text>
</g>
<!-- 32&#45;&gt;33 -->
<g id="edge33" class="edge">
<title>32&#45;&gt;33</title>
<path fill="none" stroke="black" d="M1000.5,-71.7C1000.5,-63.98 1000.5,-54.71 1000.5,-46.11"/>
<polygon fill="black" stroke="black" points="1004,-46.1 1000.5,-36.1 997,-46.1 1004,-46.1"/>
</g>
<!-- 35 -->
<g id="node36" class="node">
<title>35</title>
<ellipse fill="none" stroke="black" cx="1083.5" cy="-90" rx="32.49" ry="18"/>
<text text-anchor="middle" x="1083.5" y="-86.3" font-family="Times New Roman,serif" font-size="14.00">vertex</text>
</g>
<!-- 34&#45;&gt;35 -->
<g id="edge35" class="edge">
<title>34&#45;&gt;35</title>
<path fill="none" stroke="black" d="M1113.25,-144.41C1108.59,-136.04 1102.84,-125.71 1097.63,-116.37"/>
<polygon fill="black" stroke="black" points="1100.6,-114.5 1092.67,-107.47 1094.48,-117.91 1100.6,-114.5"/>
</g>
<!-- 37 -->
<g id="node38" class="node">
<title>37</title>
<ellipse fill="none" stroke="black" cx="1161.5" cy="-90" rx="27.9" ry="18"/>
<text text-anchor="middle" x="1161.5" y="-86.3" font-family="Times New Roman,serif" font-size="14.00">edge</text>
</g>
<!-- 34&#45;&gt;37 -->
<g id="edge37" class="edge">
<title>34&#45;&gt;37</title>
<path fill="none" stroke="black" d="M1131.74,-144.41C1136.4,-136.04 1142.16,-125.71 1147.36,-116.37"/>
<polygon fill="black" stroke="black" points="1150.51,-117.91 1152.32,-107.47 1144.4,-114.5 1150.51,-117.91"/>
</g>
<!-- 39 -->
<g id="node40" class="node">
<title>39</title>
<ellipse fill="none" stroke="black" cx="1239.5" cy="-90" rx="32.49" ry="18"/>
<text text-anchor="middle" x="1239.5" y="-86.3" font-family="Times New Roman,serif" font-size="14.00">vertex</text>
</g>
<!-- 34&#45;&gt;39 -->
<g id="edge39" class="edge">
<title>34&#45;&gt;39</title>
<path fill="none" stroke="black" d="M1145.33,-147.34C1163.67,-136.37 1189.57,-120.87 1209.57,-108.91"/>
<polygon fill="black" stroke="black" points="1211.51,-111.82 1218.29,-103.69 1207.92,-105.82 1211.51,-111.82"/>
</g>
<!-- 36 -->
<g id="node37" class="node">
<title>36</title>
<ellipse fill="none" stroke="black" cx="1083.5" cy="-18" rx="27" ry="18"/>
<text text-anchor="middle" x="1083.5" y="-14.3" font-family="Times New Roman,serif" font-size="14.00">v3</text>
</g>
<!-- 35&#45;&gt;36 -->
<g id="edge36" class="edge">
<title>35&#45;&gt;36</title>
<path fill="none" stroke="black" d="M1083.5,-71.7C1083.5,-63.98 1083.5,-54.71 1083.5,-46.11"/>
<polygon fill="black" stroke="black" points="1087,-46.1 1083.5,-36.1 1080,-46.1 1087,-46.1"/>
</g>
<!-- 38 -->
<g id="node39" class="node">
<title>38</title>
<ellipse fill="none" stroke="black" cx="1161.5" cy="-18" rx="27" ry="18"/>
<text text-anchor="middle" x="1161.5" y="-14.3" font-family="Times New Roman,serif" font-size="14.00">&#45;</text>
</g>
<!-- 37&#45;&gt;38 -->
<g id="edge38" class="edge">
<title>37&#45;&gt;38</title>
<path fill="none" stroke="black" d="M1161.5,-71.7C1161.5,-63.98 1161.5,-54.71 1161.5,-46.11"/>
<polygon fill="black" stroke="black" points="1165,-46.1 1161.5,-36.1 1158,-46.1 1165,-46.1"/>
</g>
<!-- 40 -->
<g id="node41" class="node">
<title>40</title>
<ellipse fill="none" stroke="black" cx="1239.5" cy="-18" rx="27" ry="18"/>
<text text-anchor="middle" x="1239.5" y="-14.3" font-family="Times New Roman,serif" font-size="14.00">v5</text>
</g>
<!-- 39&#45;&gt;40 -->
<g id="edge40" class="edge">
<title>39&#45;&gt;40</title>
<path fill="none" stroke="black" d="M1239.5,-71.7C1239.5,-63.98 1239.5,-54.71 1239.5,-46.11"/>
<polygon fill="black" stroke="black" points="1243,-46.1 1239.5,-36.1 1236,-46.1 1243,-46.1"/>
</g>
<!-- 42 -->
<g id="node43" class="node">
<title>42</title>
<ellipse fill="none" stroke="black" cx="1322.5" cy="-90" rx="32.49" ry="18"/>
<text text-anchor="middle" x="1322.5" y="-86.3" font-family="Times New Roman,serif" font-size="14.00">vertex</text>
</g>
<!-- 41&#45;&gt;42 -->
<g id="edge42" class="edge">
<title>41&#45;&gt;42</title>
<path fill="none" stroke="black" d="M1352.25,-144.41C1347.59,-136.04 1341.84,-125.71 1336.63,-116.37"/>
<polygon fill="black" stroke="black" points="1339.6,-114.5 1331.67,-107.47 1333.48,-117.91 1339.6,-114.5"/>
</g>
<!-- 44 -->
<g id="node45" class="node">
<title>44</title>
<ellipse fill="none" stroke="black" cx="1400.5" cy="-90" rx="27.9" ry="18"/>
<text text-anchor="middle" x="1400.5" y="-86.3" font-family="Times New Roman,serif" font-size="14.00">edge</text>
</g>
<!-- 41&#45;&gt;44 -->
<g id="edge44" class="edge">
<title>41&#45;&gt;44</title>
<path fill="none" stroke="black" d="M1370.74,-144.41C1375.4,-136.04 1381.16,-125.71 1386.36,-116.37"/>
<polygon fill="black" stroke="black" points="1389.51,-117.91 1391.32,-107.47 1383.4,-114.5 1389.51,-117.91"/>
</g>
<!-- 46 -->
<g id="node47" class="node">
<title>46</title>
<ellipse fill="none" stroke="black" cx="1478.5" cy="-90" rx="32.49" ry="18"/>
<text text-anchor="middle" x="1478.5" y="-86.3" font-family="Times New Roman,serif" font-size="14.00">vertex</text>
</g>
<!-- 41&#45;&gt;46 -->
<g id="edge46" class="edge">
<title>41&#45;&gt;46</title>
<path fill="none" stroke="black" d="M1384.33,-147.34C1402.67,-136.37 1428.57,-120.87 1448.57,-108.91"/>
<polygon fill="black" stroke="black" points="1450.51,-111.82 1457.29,-103.69 1446.92,-105.82 1450.51,-111.82"/>
</g>
<!-- 43 -->
<g id="node44" class="node">
<title>43</title>
<ellipse fill="none" stroke="black" cx="1322.5" cy="-18" rx="27" ry="18"/>
<text text-anchor="middle" x="1322.5" y="-14.3" font-family="Times New Roman,serif" font-size="14.00">v2</text>
</g>
<!-- 42&#45;&gt;43 -->
<g id="edge43" class="edge">
<title>42&#45;&gt;43</title>
<path fill="none" stroke="black" d="M1322.5,-71.7C1322.5,-63.98 1322.5,-54.71 1322.5,-46.11"/>
<polygon fill="black" stroke="black" points="1326,-46.1 1322.5,-36.1 1319,-46.1 1326,-46.1"/>
</g>
<!-- 45 -->
<g id="node46" class="node">
<title>45</title>
<ellipse fill="none" stroke="black" cx="1400.5" cy="-18" rx="27" ry="18"/>
<text text-anchor="middle" x="1400.5" y="-14.3" font-family="Times New Roman,serif" font-size="14.00">&#45;</text>
</g>
<!-- 44&#45;&gt;45 -->
<g id="edge45" class="edge">
<title>44&#45;&gt;45</title>
<path fill="none" stroke="black" d="M1400.5,-71.7C1400.5,-63.98 1400.5,-54.71 1400.5,-46.11"/>
<polygon fill="black" stroke="black" points="1404,-46.1 1400.5,-36.1 1397,-46.1 1404,-46.1"/>
</g>
<!-- 47 -->
<g id="node48" class="node">
<title>47</title>
<ellipse fill="none" stroke="black" cx="1478.5" cy="-18" rx="27" ry="18"/>
<text text-anchor="middle" x="1478.5" y="-14.3" font-family="Times New Roman,serif" font-size="14.00">v6</text>
</g>
<!-- 46&#45;&gt;47 -->
<g id="edge47" class="edge">
<title>46&#45;&gt;47</title>
<path fill="none" stroke="black" d="M1478.5,-71.7C1478.5,-63.98 1478.5,-54.71 1478.5,-46.11"/>
<polygon fill="black" stroke="black" points="1482,-46.1 1478.5,-36.1 1475,-46.1 1482,-46.1"/>
</g>
<!-- 50 -->
<g id="node51" class="node">
<title>50</title>
<ellipse fill="none" stroke="black" cx="1657.5" cy="-234" rx="27" ry="18"/>
<text text-anchor="middle" x="1657.5" y="-230.3" font-family="Times New Roman,serif" font-size="14.00">{</text>
</g>
<!-- 49&#45;&gt;50 -->
<g id="edge50" class="edge">
<title>49&#45;&gt;50</title>
<path fill="none" stroke="black" d="M1720.13,-290.5C1708.68,-280.35 1693.22,-266.65 1680.52,-255.4"/>
<polygon fill="black" stroke="black" points="1682.84,-252.78 1673.04,-248.77 1678.2,-258.02 1682.84,-252.78"/>
</g>
<!-- 51 -->
<g id="node52" class="node">
<title>51</title>
<ellipse fill="none" stroke="black" cx="1736.5" cy="-234" rx="33.6" ry="18"/>
<text text-anchor="middle" x="1736.5" y="-230.3" font-family="Times New Roman,serif" font-size="14.00">render</text>
</g>
<!-- 49&#45;&gt;51 -->
<g id="edge51" class="edge">
<title>49&#45;&gt;51</title>
<path fill="none" stroke="black" d="M1736.5,-287.7C1736.5,-279.98 1736.5,-270.71 1736.5,-262.11"/>
<polygon fill="black" stroke="black" points="1740,-262.1 1736.5,-252.1 1733,-262.1 1740,-262.1"/>
</g>
<!-- 60 -->
<g id="node61" class="node">
<title>60</title>
<ellipse fill="none" stroke="black" cx="2017.5" cy="-234" rx="42.49" ry="18"/>
<text text-anchor="middle" x="2017.5" y="-230.3" font-family="Times New Roman,serif" font-size="14.00">elements</text>
</g>
<!-- 49&#45;&gt;60 -->
<g id="edge60" class="edge">
<title>49&#45;&gt;60</title>
<path fill="none" stroke="black" d="M1764.73,-297.97C1813.41,-285.84 1913.54,-260.9 1972.11,-246.31"/>
<polygon fill="black" stroke="black" points="1972.98,-249.7 1981.84,-243.88 1971.29,-242.9 1972.98,-249.7"/>
</g>
<!-- 88 -->
<g id="node89" class="node">
<title>88</title>
<ellipse fill="none" stroke="black" cx="2104.5" cy="-234" rx="27" ry="18"/>
<text text-anchor="middle" x="2104.5" y="-230.3" font-family="Times New Roman,serif" font-size="14.00">}</text>
</g>
<!-- 49&#45;&gt;88 -->
<g id="edge88" class="edge">
<title>49&#45;&gt;88</title>
<path fill="none" stroke="black" d="M1767.37,-302.99C1826.82,-298.5 1960.87,-285.26 2068.5,-252 2070.43,-251.4 2072.39,-250.72 2074.35,-249.98"/>
<polygon fill="black" stroke="black" points="2076.11,-253.03 2083.96,-245.92 2073.38,-246.59 2076.11,-253.03"/>
</g>
<!-- 52 -->
<g id="node53" class="node">
<title>52</title>
<ellipse fill="none" stroke="black" cx="1564.5" cy="-162" rx="27" ry="18"/>
<text text-anchor="middle" x="1564.5" y="-158.3" font-family="Times New Roman,serif" font-size="14.00">[</text>
</g>
<!-- 51&#45;&gt;52 -->
<g id="edge52" class="edge">
<title>51&#45;&gt;52</title>
<path fill="none" stroke="black" d="M1710.13,-222.54C1704.64,-220.37 1698.88,-218.11 1693.5,-216 1652.22,-199.85 1641.23,-197.47 1600.5,-180 1598.69,-179.22 1596.83,-178.41 1594.97,-177.57"/>
<polygon fill="black" stroke="black" points="1596.25,-174.31 1585.7,-173.32 1593.33,-180.67 1596.25,-174.31"/>
</g>
<!-- 53 -->
<g id="node54" class="node">
<title>53</title>
<ellipse fill="none" stroke="black" cx="1641.5" cy="-162" rx="32.49" ry="18"/>
<text text-anchor="middle" x="1641.5" y="-158.3" font-family="Times New Roman,serif" font-size="14.00">layout</text>
</g>
<!-- 51&#45;&gt;53 -->
<g id="edge53" class="edge">
<title>51&#45;&gt;53</title>
<path fill="none" stroke="black" d="M1717.27,-218.83C1703.27,-208.52 1684.12,-194.41 1668.58,-182.96"/>
<polygon fill="black" stroke="black" points="1670.5,-180.02 1660.37,-176.91 1666.34,-185.66 1670.5,-180.02"/>
</g>
<!-- 56 -->
<g id="node57" class="node">
<title>56</title>
<ellipse fill="none" stroke="black" cx="1736.5" cy="-162" rx="44.69" ry="18"/>
<text text-anchor="middle" x="1736.5" y="-158.3" font-family="Times New Roman,serif" font-size="14.00">extension</text>
</g>
<!-- 51&#45;&gt;56 -->
<g id="edge56" class="edge">
<title>51&#45;&gt;56</title>
<path fill="none" stroke="black" d="M1736.5,-215.7C1736.5,-207.98 1736.5,-198.71 1736.5,-190.11"/>
<polygon fill="black" stroke="black" points="1740,-190.1 1736.5,-180.1 1733,-190.1 1740,-190.1"/>
</g>
<!-- 59 -->
<g id="node60" class="node">
<title>59</title>
<ellipse fill="none" stroke="black" cx="1826.5" cy="-162" rx="27" ry="18"/>
<text text-anchor="middle" x="1826.5" y="-158.3" font-family="Times New Roman,serif" font-size="14.00">]</text>
</g>
<!-- 51&#45;&gt;59 -->
<g id="edge59" class="edge">
<title>51&#45;&gt;59</title>
<path fill="none" stroke="black" d="M1754.71,-218.83C1768.11,-208.42 1786.48,-194.12 1801.29,-182.61"/>
<polygon fill="black" stroke="black" points="1803.78,-185.1 1809.53,-176.2 1799.49,-179.57 1803.78,-185.1"/>
</g>
<!-- 54 -->
<g id="node55" class="node">
<title>54</title>
<ellipse fill="none" stroke="black" cx="1561.5" cy="-90" rx="32.49" ry="18"/>
<text text-anchor="middle" x="1561.5" y="-86.3" font-family="Times New Roman,serif" font-size="14.00">layout</text>
</g>
<!-- 53&#45;&gt;54 -->
<g id="edge54" class="edge">
<title>53&#45;&gt;54</title>
<path fill="none" stroke="black" d="M1624.92,-146.5C1613.73,-136.71 1598.77,-123.61 1586.19,-112.6"/>
<polygon fill="black" stroke="black" points="1588.16,-109.68 1578.33,-105.73 1583.55,-114.95 1588.16,-109.68"/>
</g>
<!-- 55 -->
<g id="node56" class="node">
<title>55</title>
<ellipse fill="none" stroke="black" cx="1641.5" cy="-90" rx="29.5" ry="18"/>
<text text-anchor="middle" x="1641.5" y="-86.3" font-family="Times New Roman,serif" font-size="14.00">circo</text>
</g>
<!-- 53&#45;&gt;55 -->
<g id="edge55" class="edge">
<title>53&#45;&gt;55</title>
<path fill="none" stroke="black" d="M1641.5,-143.7C1641.5,-135.98 1641.5,-126.71 1641.5,-118.11"/>
<polygon fill="black" stroke="black" points="1645,-118.1 1641.5,-108.1 1638,-118.1 1645,-118.1"/>
</g>
<!-- 57 -->
<g id="node58" class="node">
<title>57</title>
<ellipse fill="none" stroke="black" cx="1733.5" cy="-90" rx="44.69" ry="18"/>
<text text-anchor="middle" x="1733.5" y="-86.3" font-family="Times New Roman,serif" font-size="14.00">extension</text>
</g>
<!-- 56&#45;&gt;57 -->
<g id="edge57" class="edge">
<title>56&#45;&gt;57</title>
<path fill="none" stroke="black" d="M1735.76,-143.7C1735.42,-135.98 1735.03,-126.71 1734.66,-118.11"/>
<polygon fill="black" stroke="black" points="1738.16,-117.95 1734.23,-108.1 1731.16,-118.25 1738.16,-117.95"/>
</g>
<!-- 58 -->
<g id="node59" class="node">
<title>58</title>
<ellipse fill="none" stroke="black" cx="1823.5" cy="-90" rx="27" ry="18"/>
<text text-anchor="middle" x="1823.5" y="-86.3" font-family="Times New Roman,serif" font-size="14.00">jpg</text>
</g>
<!-- 56&#45;&gt;58 -->
<g id="edge58" class="edge">
<title>56&#45;&gt;58</title>
<path fill="none" stroke="black" d="M1755.81,-145.46C1768.49,-135.26 1785.2,-121.81 1798.84,-110.84"/>
<polygon fill="black" stroke="black" points="1801.28,-113.37 1806.88,-104.37 1796.89,-107.91 1801.28,-113.37"/>
</g>
<!-- 61 -->
<g id="node62" class="node">
<title>61</title>
<ellipse fill="none" stroke="black" cx="2017.5" cy="-162" rx="38.19" ry="18"/>
<text text-anchor="middle" x="2017.5" y="-158.3" font-family="Times New Roman,serif" font-size="14.00">element</text>
</g>
<!-- 60&#45;&gt;61 -->
<g id="edge61" class="edge">
<title>60&#45;&gt;61</title>
<path fill="none" stroke="black" d="M2017.5,-215.7C2017.5,-207.98 2017.5,-198.71 2017.5,-190.11"/>
<polygon fill="black" stroke="black" points="2021,-190.1 2017.5,-180.1 2014,-190.1 2021,-190.1"/>
</g>
<!-- 70 -->
<g id="node71" class="node">
<title>70</title>
<ellipse fill="none" stroke="black" cx="2304.5" cy="-162" rx="38.19" ry="18"/>
<text text-anchor="middle" x="2304.5" y="-158.3" font-family="Times New Roman,serif" font-size="14.00">element</text>
</g>
<!-- 60&#45;&gt;70 -->
<g id="edge70" class="edge">
<title>60&#45;&gt;70</title>
<path fill="none" stroke="black" d="M2049.17,-221.89C2055.54,-219.82 2062.2,-217.75 2068.5,-216 2134.27,-197.7 2211.68,-181.27 2259.42,-171.71"/>
<polygon fill="black" stroke="black" points="2260.31,-175.11 2269.43,-169.72 2258.94,-168.24 2260.31,-175.11"/>
</g>
<!-- 79 -->
<g id="node80" class="node">
<title>79</title>
<ellipse fill="none" stroke="black" cx="2630.5" cy="-162" rx="38.19" ry="18"/>
<text text-anchor="middle" x="2630.5" y="-158.3" font-family="Times New Roman,serif" font-size="14.00">element</text>
</g>
<!-- 60&#45;&gt;79 -->
<g id="edge79" class="edge">
<title>60&#45;&gt;79</title>
<path fill="none" stroke="black" d="M2048.2,-221.51C2054.82,-219.39 2061.83,-217.41 2068.5,-216 2166.35,-195.36 2465.37,-173.94 2582.62,-166.11"/>
<polygon fill="black" stroke="black" points="2582.98,-169.59 2592.72,-165.44 2582.51,-162.61 2582.98,-169.59"/>
</g>
<!-- 62 -->
<g id="node63" class="node">
<title>62</title>
<ellipse fill="none" stroke="black" cx="1900.5" cy="-90" rx="32.49" ry="18"/>
<text text-anchor="middle" x="1900.5" y="-86.3" font-family="Times New Roman,serif" font-size="14.00">vertex</text>
</g>
<!-- 61&#45;&gt;62 -->
<g id="edge62" class="edge">
<title>61&#45;&gt;62</title>
<path fill="none" stroke="black" d="M1994.66,-147.34C1976.32,-136.37 1950.42,-120.87 1930.42,-108.91"/>
<polygon fill="black" stroke="black" points="1932.08,-105.82 1921.7,-103.69 1928.49,-111.82 1932.08,-105.82"/>
</g>
<!-- 64 -->
<g id="node65" class="node">
<title>64</title>
<ellipse fill="none" stroke="black" cx="1978.5" cy="-90" rx="27.9" ry="18"/>
<text text-anchor="middle" x="1978.5" y="-86.3" font-family="Times New Roman,serif" font-size="14.00">edge</text>
</g>
<!-- 61&#45;&gt;64 -->
<g id="edge64" class="edge">
<title>61&#45;&gt;64</title>
<path fill="none" stroke="black" d="M2008.25,-144.41C2003.59,-136.04 1997.84,-125.71 1992.63,-116.37"/>
<polygon fill="black" stroke="black" points="1995.6,-114.5 1987.67,-107.47 1989.48,-117.91 1995.6,-114.5"/>
</g>
<!-- 66 -->
<g id="node67" class="node">
<title>66</title>
<ellipse fill="none" stroke="black" cx="2056.5" cy="-90" rx="32.49" ry="18"/>
<text text-anchor="middle" x="2056.5" y="-86.3" font-family="Times New Roman,serif" font-size="14.00">vertex</text>
</g>
<!-- 61&#45;&gt;66 -->
<g id="edge66" class="edge">
<title>61&#45;&gt;66</title>
<path fill="none" stroke="black" d="M2026.74,-144.41C2031.4,-136.04 2037.16,-125.71 2042.36,-116.37"/>
<polygon fill="black" stroke="black" points="2045.51,-117.91 2047.32,-107.47 2039.4,-114.5 2045.51,-117.91"/>
</g>
<!-- 68 -->
<g id="node69" class="node">
<title>68</title>
<ellipse fill="none" stroke="black" cx="2141.5" cy="-90" rx="34.39" ry="18"/>
<text text-anchor="middle" x="2141.5" y="-86.3" font-family="Times New Roman,serif" font-size="14.00">weight</text>
</g>
<!-- 61&#45;&gt;68 -->
<g id="edge68" class="edge">
<title>61&#45;&gt;68</title>
<path fill="none" stroke="black" d="M2041.11,-147.67C2060.66,-136.63 2088.61,-120.85 2110.06,-108.75"/>
<polygon fill="black" stroke="black" points="2111.82,-111.77 2118.81,-103.81 2108.38,-105.68 2111.82,-111.77"/>
</g>
<!-- 63 -->
<g id="node64" class="node">
<title>63</title>
<ellipse fill="none" stroke="black" cx="1900.5" cy="-18" rx="27" ry="18"/>
<text text-anchor="middle" x="1900.5" y="-14.3" font-family="Times New Roman,serif" font-size="14.00">v1</text>
</g>
<!-- 62&#45;&gt;63 -->
<g id="edge63" class="edge">
<title>62&#45;&gt;63</title>
<path fill="none" stroke="black" d="M1900.5,-71.7C1900.5,-63.98 1900.5,-54.71 1900.5,-46.11"/>
<polygon fill="black" stroke="black" points="1904,-46.1 1900.5,-36.1 1897,-46.1 1904,-46.1"/>
</g>
<!-- 65 -->
<g id="node66" class="node">
<title>65</title>
<ellipse fill="none" stroke="black" cx="1978.5" cy="-18" rx="27" ry="18"/>
<text text-anchor="middle" x="1978.5" y="-14.3" font-family="Times New Roman,serif" font-size="14.00">&#45;&gt;</text>
</g>
<!-- 64&#45;&gt;65 -->
<g id="edge65" class="edge">
<title>64&#45;&gt;65</title>
<path fill="none" stroke="black" d="M1978.5,-71.7C1978.5,-63.98 1978.5,-54.71 1978.5,-46.11"/>
<polygon fill="black" stroke="black" points="1982,-46.1 1978.5,-36.1 1975,-46.1 1982,-46.1"/>
</g>
<!-- 67 -->
<g id="node68" class="node">
<title>67</title>
<ellipse fill="none" stroke="black" cx="2056.5" cy="-18" rx="27" ry="18"/>
<text text-anchor="middle" x="2056.5" y="-14.3" font-family="Times New Roman,serif" font-size="14.00">v2</text>
</g>
<!-- 66&#45;&gt;67 -->
<g id="edge67" class="edge">
<title>66&#45;&gt;67</title>
<path fill="none" stroke="black" d="M2056.5,-71.7C2056.5,-63.98 2056.5,-54.71 2056.5,-46.11"/>
<polygon fill="black" stroke="black" points="2060,-46.1 2056.5,-36.1 2053,-46.1 2060,-46.1"/>
</g>
<!-- 69 -->
<g id="node70" class="node">
<title>69</title>
<ellipse fill="none" stroke="black" cx="2141.5" cy="-18" rx="27" ry="18"/>
<text text-anchor="middle" x="2141.5" y="-14.3" font-family="Times New Roman,serif" font-size="14.00">5</text>
</g>
<!-- 68&#45;&gt;69 -->
<g id="edge69" class="edge">
<title>68&#45;&gt;69</title>
<path fill="none" stroke="black" d="M2141.5,-71.7C2141.5,-63.98 2141.5,-54.71 2141.5,-46.11"/>
<polygon fill="black" stroke="black" points="2145,-46.1 2141.5,-36.1 2138,-46.1 2145,-46.1"/>
</g>
<!-- 71 -->
<g id="node72" class="node">
<title>71</title>
<ellipse fill="none" stroke="black" cx="2226.5" cy="-90" rx="32.49" ry="18"/>
<text text-anchor="middle" x="2226.5" y="-86.3" font-family="Times New Roman,serif" font-size="14.00">vertex</text>
</g>
<!-- 70&#45;&gt;71 -->
<g id="edge71" class="edge">
<title>70&#45;&gt;71</title>
<path fill="none" stroke="black" d="M2287.57,-145.81C2276.69,-136.05 2262.4,-123.22 2250.37,-112.42"/>
<polygon fill="black" stroke="black" points="2252.63,-109.75 2242.85,-105.68 2247.96,-114.96 2252.63,-109.75"/>
</g>
<!-- 73 -->
<g id="node74" class="node">
<title>73</title>
<ellipse fill="none" stroke="black" cx="2304.5" cy="-90" rx="27.9" ry="18"/>
<text text-anchor="middle" x="2304.5" y="-86.3" font-family="Times New Roman,serif" font-size="14.00">edge</text>
</g>
<!-- 70&#45;&gt;73 -->
<g id="edge73" class="edge">
<title>70&#45;&gt;73</title>
<path fill="none" stroke="black" d="M2304.5,-143.7C2304.5,-135.98 2304.5,-126.71 2304.5,-118.11"/>
<polygon fill="black" stroke="black" points="2308,-118.1 2304.5,-108.1 2301,-118.1 2308,-118.1"/>
</g>
<!-- 75 -->
<g id="node76" class="node">
<title>75</title>
<ellipse fill="none" stroke="black" cx="2382.5" cy="-90" rx="32.49" ry="18"/>
<text text-anchor="middle" x="2382.5" y="-86.3" font-family="Times New Roman,serif" font-size="14.00">vertex</text>
</g>
<!-- 70&#45;&gt;75 -->
<g id="edge75" class="edge">
<title>70&#45;&gt;75</title>
<path fill="none" stroke="black" d="M2321.42,-145.81C2332.3,-136.05 2346.6,-123.22 2358.62,-112.42"/>
<polygon fill="black" stroke="black" points="2361.04,-114.96 2366.14,-105.68 2356.36,-109.75 2361.04,-114.96"/>
</g>
<!-- 77 -->
<g id="node78" class="node">
<title>77</title>
<ellipse fill="none" stroke="black" cx="2467.5" cy="-90" rx="34.39" ry="18"/>
<text text-anchor="middle" x="2467.5" y="-86.3" font-family="Times New Roman,serif" font-size="14.00">weight</text>
</g>
<!-- 70&#45;&gt;77 -->
<g id="edge77" class="edge">
<title>70&#45;&gt;77</title>
<path fill="none" stroke="black" d="M2331.78,-149.28C2359.42,-137.41 2402.29,-119 2432.44,-106.06"/>
<polygon fill="black" stroke="black" points="2433.93,-109.22 2441.74,-102.06 2431.17,-102.79 2433.93,-109.22"/>
</g>
<!-- 72 -->
<g id="node73" class="node">
<title>72</title>
<ellipse fill="none" stroke="black" cx="2226.5" cy="-18" rx="27" ry="18"/>
<text text-anchor="middle" x="2226.5" y="-14.3" font-family="Times New Roman,serif" font-size="14.00">v1</text>
</g>
<!-- 71&#45;&gt;72 -->
<g id="edge72" class="edge">
<title>71&#45;&gt;72</title>
<path fill="none" stroke="black" d="M2226.5,-71.7C2226.5,-63.98 2226.5,-54.71 2226.5,-46.11"/>
<polygon fill="black" stroke="black" points="2230,-46.1 2226.5,-36.1 2223,-46.1 2230,-46.1"/>
</g>
<!-- 74 -->
<g id="node75" class="node">
<title>74</title>
<ellipse fill="none" stroke="black" cx="2304.5" cy="-18" rx="27" ry="18"/>
<text text-anchor="middle" x="2304.5" y="-14.3" font-family="Times New Roman,serif" font-size="14.00">&#45;&gt;</text>
</g>
<!-- 73&#45;&gt;74 -->
<g id="edge74" class="edge">
<title>73&#45;&gt;74</title>
<path fill="none" stroke="black" d="M2304.5,-71.7C2304.5,-63.98 2304.5,-54.71 2304.5,-46.11"/>
<polygon fill="black" stroke="black" points="2308,-46.1 2304.5,-36.1 2301,-46.1 2308,-46.1"/>
</g>
<!-- 76 -->
<g id="node77" class="node">
<title>76</title>
<ellipse fill="none" stroke="black" cx="2382.5" cy="-18" rx="27" ry="18"/>
<text text-anchor="middle" x="2382.5" y="-14.3" font-family="Times New Roman,serif" font-size="14.00">v3</text>
</g>
<!-- 75&#45;&gt;76 -->
<g id="edge76" class="edge">
<title>75&#45;&gt;76</title>
<path fill="none" stroke="black" d="M2382.5,-71.7C2382.5,-63.98 2382.5,-54.71 2382.5,-46.11"/>
<polygon fill="black" stroke="black" points="2386,-46.1 2382.5,-36.1 2379,-46.1 2386,-46.1"/>
</g>
<!-- 78 -->
<g id="node79" class="node">
<title>78</title>
<ellipse fill="none" stroke="black" cx="2467.5" cy="-18" rx="27" ry="18"/>
<text text-anchor="middle" x="2467.5" y="-14.3" font-family="Times New Roman,serif" font-size="14.00">20</text>
</g>
<!-- 77&#45;&gt;78 -->
<g id="edge78" class="edge">
<title>77&#45;&gt;78</title>
<path fill="none" stroke="black" d="M2467.5,-71.7C2467.5,-63.98 2467.5,-54.71 2467.5,-46.11"/>
<polygon fill="black" stroke="black" points="2471,-46.1 2467.5,-36.1 2464,-46.1 2471,-46.1"/>
</g>
<!-- 80 -->
<g id="node81" class="node">
<title>80</title>
<ellipse fill="none" stroke="black" cx="2552.5" cy="-90" rx="32.49" ry="18"/>
<text text-anchor="middle" x="2552.5" y="-86.3" font-family="Times New Roman,serif" font-size="14.00">vertex</text>
</g>
<!-- 79&#45;&gt;80 -->
<g id="edge80" class="edge">
<title>79&#45;&gt;80</title>
<path fill="none" stroke="black" d="M2613.57,-145.81C2602.69,-136.05 2588.4,-123.22 2576.37,-112.42"/>
<polygon fill="black" stroke="black" points="2578.63,-109.75 2568.85,-105.68 2573.96,-114.96 2578.63,-109.75"/>
</g>
<!-- 82 -->
<g id="node83" class="node">
<title>82</title>
<ellipse fill="none" stroke="black" cx="2630.5" cy="-90" rx="27.9" ry="18"/>
<text text-anchor="middle" x="2630.5" y="-86.3" font-family="Times New Roman,serif" font-size="14.00">edge</text>
</g>
<!-- 79&#45;&gt;82 -->
<g id="edge82" class="edge">
<title>79&#45;&gt;82</title>
<path fill="none" stroke="black" d="M2630.5,-143.7C2630.5,-135.98 2630.5,-126.71 2630.5,-118.11"/>
<polygon fill="black" stroke="black" points="2634,-118.1 2630.5,-108.1 2627,-118.1 2634,-118.1"/>
</g>
<!-- 84 -->
<g id="node85" class="node">
<title>84</title>
<ellipse fill="none" stroke="black" cx="2708.5" cy="-90" rx="32.49" ry="18"/>
<text text-anchor="middle" x="2708.5" y="-86.3" font-family="Times New Roman,serif" font-size="14.00">vertex</text>
</g>
<!-- 79&#45;&gt;84 -->
<g id="edge84" class="edge">
<title>79&#45;&gt;84</title>
<path fill="none" stroke="black" d="M2647.42,-145.81C2658.3,-136.05 2672.6,-123.22 2684.62,-112.42"/>
<polygon fill="black" stroke="black" points="2687.04,-114.96 2692.14,-105.68 2682.36,-109.75 2687.04,-114.96"/>
</g>
<!-- 86 -->
<g id="node87" class="node">
<title>86</title>
<ellipse fill="none" stroke="black" cx="2793.5" cy="-90" rx="34.39" ry="18"/>
<text text-anchor="middle" x="2793.5" y="-86.3" font-family="Times New Roman,serif" font-size="14.00">weight</text>
</g>
<!-- 79&#45;&gt;86 -->
<g id="edge86" class="edge">
<title>79&#45;&gt;86</title>
<path fill="none" stroke="black" d="M2657.78,-149.28C2685.42,-137.41 2728.29,-119 2758.44,-106.06"/>
<polygon fill="black" stroke="black" points="2759.93,-109.22 2767.74,-102.06 2757.17,-102.79 2759.93,-109.22"/>
</g>
<!-- 81 -->
<g id="node82" class="node">
<title>81</title>
<ellipse fill="none" stroke="black" cx="2552.5" cy="-18" rx="27" ry="18"/>
<text text-anchor="middle" x="2552.5" y="-14.3" font-family="Times New Roman,serif" font-size="14.00">v3</text>
</g>
<!-- 80&#45;&gt;81 -->
<g id="edge81" class="edge">
<title>80&#45;&gt;81</title>
<path fill="none" stroke="black" d="M2552.5,-71.7C2552.5,-63.98 2552.5,-54.71 2552.5,-46.11"/>
<polygon fill="black" stroke="black" points="2556,-46.1 2552.5,-36.1 2549,-46.1 2556,-46.1"/>
</g>
<!-- 83 -->
<g id="node84" class="node">
<title>83</title>
<ellipse fill="none" stroke="black" cx="2630.5" cy="-18" rx="27" ry="18"/>
<text text-anchor="middle" x="2630.5" y="-14.3" font-family="Times New Roman,serif" font-size="14.00">&#45;&gt;</text>
</g>
<!-- 82&#45;&gt;83 -->
<g id="edge83" class="edge">
<title>82&#45;&gt;83</title>
<path fill="none" stroke="black" d="M2630.5,-71.7C2630.5,-63.98 2630.5,-54.71 2630.5,-46.11"/>
<polygon fill="black" stroke="black" points="2634,-46.1 2630.5,-36.1 2627,-46.1 2634,-46.1"/>
</g>
<!-- 85 -->
<g id="node86" class="node">
<title>85</title>
<ellipse fill="none" stroke="black" cx="2708.5" cy="-18" rx="27" ry="18"/>
<text text-anchor="middle" x="2708.5" y="-14.3" font-family="Times New Roman,serif" font-size="14.00">v1</text>
</g>
<!-- 84&#45;&gt;85 -->
<g id="edge85" class="edge">
<title>84&#45;&gt;85</title>
<path fill="none" stroke="black" d="M2708.5,-71.7C2708.5,-63.98 2708.5,-54.71 2708.5,-46.11"/>
<polygon fill="black" stroke="black" points="2712,-46.1 2708.5,-36.1 2705,-46.1 2712,-46.1"/>
</g>
<!-- 87 -->
<g id="node88" class="node">
<title>87</title>
<ellipse fill="none" stroke="black" cx="2793.5" cy="-18" rx="27" ry="18"/>
<text text-anchor="middle" x="2793.5" y="-14.3" font-family="Times New Roman,serif" font-size="14.00">16</text>
</g>
<!-- 86&#45;&gt;87 -->
<g id="edge87" class="edge">
<title>86&#45;&gt;87</title>
<path fill="none" stroke="black" d="M2793.5,-71.7C2793.5,-63.98 2793.5,-54.71 2793.5,-46.11"/>
<polygon fill="black" stroke="black" points="2797,-46.1 2793.5,-36.1 2790,-46.1 2797,-46.1"/>
</g>
</g>
</svg>
